<svg width="33" height="32" viewBox="0 0 33 32" fill="none" xmlns="http://www.w3.org/2000/svg">
<g clip-path="url(#clip0_673_632)">
<path d="M25.38 0H8.38C4.23787 0 0.880005 3.35786 0.880005 7.5V24.5C0.880005 28.6421 4.23787 32 8.38 32H25.38C29.5221 32 32.88 28.6421 32.88 24.5V7.5C32.88 3.35786 29.5221 0 25.38 0Z" fill="url(#paint0_radial_673_632)"/>
<path d="M25.38 0H8.38C4.23787 0 0.880005 3.35786 0.880005 7.5V24.5C0.880005 28.6421 4.23787 32 8.38 32H25.38C29.5221 32 32.88 28.6421 32.88 24.5V7.5C32.88 3.35786 29.5221 0 25.38 0Z" fill="url(#paint1_radial_673_632)"/>
<path d="M16.8811 3.5C13.4864 3.5 13.0603 3.51488 11.727 3.5755C10.3963 3.6365 9.48788 3.84712 8.69313 4.15625C7.87088 4.4755 7.17351 4.90262 6.47875 5.59762C5.78338 6.2925 5.35626 6.98987 5.03601 7.81175C4.72601 8.60675 4.51513 9.5155 4.45525 10.8456C4.39563 12.179 4.38 12.6053 4.38 16.0001C4.38 19.395 4.395 19.8197 4.4555 21.153C4.51675 22.4837 4.72738 23.3921 5.03625 24.1869C5.35575 25.0091 5.78288 25.7065 6.47788 26.4013C7.1725 27.0966 7.86988 27.5247 8.6915 27.844C9.48688 28.1531 10.3954 28.3637 11.7259 28.4247C13.0593 28.4854 13.485 28.5002 16.8796 28.5002C20.2748 28.5002 20.6995 28.4854 22.0328 28.4247C23.3635 28.3637 24.2729 28.1531 25.0683 27.844C25.8901 27.5247 26.5865 27.0966 27.281 26.4013C27.9764 25.7065 28.4034 25.0091 28.7238 24.1873C29.031 23.3921 29.242 22.4835 29.3045 21.1532C29.3644 19.82 29.38 19.395 29.38 16.0001C29.38 12.6053 29.3644 12.1792 29.3045 10.8459C29.242 9.51512 29.031 8.60688 28.7238 7.81213C28.4034 6.98988 27.9764 6.2925 27.281 5.59762C26.5858 4.90237 25.8904 4.47525 25.0675 4.15637C24.2706 3.84712 23.3618 3.63638 22.031 3.5755C20.6976 3.51488 20.2731 3.5 16.8773 3.5H16.8811ZM15.7598 5.75262C16.0926 5.75213 16.464 5.75262 16.8811 5.75262C20.2188 5.75262 20.6143 5.76463 21.9323 5.8245C23.151 5.88025 23.8125 6.08388 24.2531 6.255C24.8365 6.4815 25.2524 6.75238 25.6896 7.19C26.1271 7.6275 26.3979 8.04412 26.625 8.6275C26.7961 9.0675 27 9.729 27.0555 10.9478C27.1154 12.2655 27.1284 12.6612 27.1284 15.9972C27.1284 19.3333 27.1154 19.7291 27.0555 21.0467C26.9998 22.2655 26.7961 22.927 26.625 23.3671C26.3985 23.9505 26.1271 24.3659 25.6896 24.8031C25.2521 25.2406 24.8368 25.5114 24.2531 25.738C23.813 25.9099 23.151 26.113 21.9323 26.1688C20.6145 26.2286 20.2188 26.2416 16.8811 26.2416C13.5434 26.2416 13.1478 26.2286 11.8301 26.1688C10.6114 26.1125 9.94988 25.9089 9.50888 25.7377C8.92563 25.5111 8.50888 25.2404 8.07138 24.8029C7.63388 24.3654 7.36313 23.9498 7.136 23.3661C6.96488 22.926 6.761 22.2645 6.7055 21.0457C6.64563 19.728 6.63363 19.3323 6.63363 15.9941C6.63363 12.6561 6.64563 12.2624 6.7055 10.9446C6.76125 9.72587 6.96488 9.06437 7.136 8.62375C7.36263 8.04037 7.63388 7.62375 8.07151 7.18625C8.50901 6.74875 8.92563 6.47787 9.509 6.25087C9.94963 6.079 10.6114 5.87587 11.8301 5.81987C12.9833 5.76775 13.4301 5.75212 15.7598 5.7495V5.75262ZM23.5536 7.82812C22.7255 7.82812 22.0536 8.49938 22.0536 9.32763C22.0536 10.1558 22.7255 10.8276 23.5536 10.8276C24.3818 10.8276 25.0536 10.1558 25.0536 9.32763C25.0536 8.4995 24.3818 7.82762 23.5536 7.82762V7.82812ZM16.8811 9.58075C13.3361 9.58075 10.4619 12.455 10.4619 16.0001C10.4619 19.5452 13.3361 22.4181 16.8811 22.4181C20.4263 22.4181 23.2995 19.5452 23.2995 16.0001C23.2995 12.4551 20.426 9.58075 16.8809 9.58075H16.8811ZM16.8811 11.8334C19.1823 11.8334 21.0479 13.6988 21.0479 16.0001C21.0479 18.3013 19.1823 20.1669 16.8811 20.1669C14.5799 20.1669 12.7145 18.3013 12.7145 16.0001C12.7145 13.6988 14.5799 11.8334 16.8811 11.8334Z" fill="white"/>
</g>
<defs>
<radialGradient id="paint0_radial_673_632" cx="0" cy="0" r="1" gradientUnits="userSpaceOnUse" gradientTransform="translate(9.38 34.4646) rotate(-90) scale(31.7144 29.4969)">
<stop stop-color="#FFDD55"/>
<stop offset="0.1" stop-color="#FFDD55"/>
<stop offset="0.5" stop-color="#FF543E"/>
<stop offset="1" stop-color="#C837AB"/>
</radialGradient>
<radialGradient id="paint1_radial_673_632" cx="0" cy="0" r="1" gradientUnits="userSpaceOnUse" gradientTransform="translate(-4.48012 2.30512) rotate(78.681) scale(14.1765 58.436)">
<stop stop-color="#3771C8"/>
<stop offset="0.128" stop-color="#3771C8"/>
<stop offset="1" stop-color="#6600FF" stop-opacity="0"/>
</radialGradient>
<clipPath id="clip0_673_632">
<rect width="32" height="32" fill="white" transform="translate(0.880005)"/>
</clipPath>
</defs>
</svg>
