<svg width="33" height="32" viewBox="0 0 33 32" fill="none" xmlns="http://www.w3.org/2000/svg">
<g clip-path="url(#clip0_673_637)">
<path d="M25.38 0H8.38C4.23787 0 0.880005 3.35786 0.880005 7.5V24.5C0.880005 28.6421 4.23787 32 8.38 32H25.38C29.5221 32 32.88 28.6421 32.88 24.5V7.5C32.88 3.35786 29.5221 0 25.38 0Z" fill="white"/>
<path d="M25.38 0H8.38C4.23787 0 0.880005 3.35786 0.880005 7.5V24.5C0.880005 28.6421 4.23787 32 8.38 32H25.38C29.5221 32 32.88 28.6421 32.88 24.5V7.5C32.88 3.35786 29.5221 0 25.38 0Z" fill="#0A66C2"/>
<path d="M23.9694 27.2106H27.6281C27.7607 27.2106 27.8879 27.158 27.9816 27.0642C28.0754 26.9705 28.1281 26.8433 28.1281 26.7108L28.13 18.9805C28.13 14.9401 27.2594 11.8345 22.5378 11.8345C20.7429 11.7678 19.0503 12.693 18.1369 14.238C18.1324 14.2455 18.1256 14.2513 18.1175 14.2546C18.1094 14.2579 18.1005 14.2584 18.0921 14.2562C18.0836 14.2539 18.0762 14.2489 18.0708 14.242C18.0655 14.2351 18.0626 14.2266 18.0625 14.2179V12.7075C18.0625 12.5749 18.0098 12.4477 17.9161 12.3539C17.8223 12.2602 17.6951 12.2075 17.5625 12.2075H14.0904C13.9578 12.2075 13.8306 12.2602 13.7368 12.3539C13.6431 12.4477 13.5904 12.5749 13.5904 12.7075V26.71C13.5904 26.8426 13.6431 26.9698 13.7368 27.0636C13.8306 27.1573 13.9578 27.21 14.0904 27.21H17.7489C17.8815 27.21 18.0087 27.1573 18.1024 27.0636C18.1962 26.9698 18.2489 26.8426 18.2489 26.71V19.7884C18.2489 17.8313 18.6201 15.9359 21.0465 15.9359C23.4384 15.9359 23.4694 18.1754 23.4694 19.9151V26.7106C23.4694 26.8432 23.5221 26.9704 23.6158 27.0642C23.7096 27.1579 23.8368 27.2106 23.9694 27.2106ZM5.63 7.45337C5.63 8.9365 6.85088 10.1567 8.334 10.1567C9.81675 10.1566 11.0369 8.93563 11.0369 7.45288C11.0366 5.97013 9.81638 4.75 8.3335 4.75C6.85025 4.75 5.63 5.97037 5.63 7.45337ZM6.49988 27.2106H10.1633C10.2959 27.2106 10.423 27.1579 10.5168 27.0642C10.6106 26.9704 10.6633 26.8432 10.6633 26.7106V12.7075C10.6633 12.5749 10.6106 12.4477 10.5168 12.3539C10.423 12.2602 10.2959 12.2075 10.1633 12.2075H6.49988C6.36727 12.2075 6.24009 12.2602 6.14633 12.3539C6.05256 12.4477 5.99988 12.5749 5.99988 12.7075V26.7106C5.99988 26.8432 6.05256 26.9704 6.14633 27.0642C6.24009 27.1579 6.36727 27.2106 6.49988 27.2106Z" fill="white"/>
</g>
<defs>
<clipPath id="clip0_673_637">
<rect width="32" height="32" fill="white" transform="translate(0.880005)"/>
</clipPath>
</defs>
</svg>
