<svg width="6" height="10" viewBox="0 0 6 10" fill="none" xmlns="http://www.w3.org/2000/svg">
<path d="M0.49255 9.80237C0.360798 9.67062 0.294922 9.51462 0.294922 9.33439C0.294922 9.15415 0.360798 8.99833 0.49255 8.86693L4.35289 5.00659L0.479375 1.13307C0.356406 1.0101 0.294922 0.85639 0.294922 0.671937C0.294922 0.487484 0.360798 0.329381 0.49255 0.197628C0.624303 0.0658761 0.780297 0 0.960535 0C1.14077 0 1.29659 0.0658761 1.42799 0.197628L5.85487 4.63768C5.90757 4.69038 5.94499 4.74747 5.96712 4.80896C5.98926 4.87044 6.00015 4.93632 5.9998 5.00659C5.9998 5.07686 5.98873 5.14273 5.9666 5.20422C5.94446 5.2657 5.90722 5.32279 5.85487 5.37549L1.41482 9.81555C1.29185 9.93851 1.14024 10 0.960007 10C0.77977 10 0.623951 9.93412 0.49255 9.80237Z" fill="#15324B"/>
</svg>
