<svg width="33" height="26" viewBox="0 0 33 26" fill="none" xmlns="http://www.w3.org/2000/svg">
<path d="M28.844 6.47204C28.8635 6.75429 28.8635 7.03629 28.8635 7.32104C28.8635 15.996 22.2592 26.001 10.1835 26.001V25.996C6.61602 26.001 3.12248 24.9792 0.119995 23.0525C0.638745 23.115 1.16 23.1463 1.6825 23.1475C4.63927 23.1499 7.511 22.1582 9.83625 20.3318C8.46624 20.3059 7.13856 19.8525 6.03885 19.0351C4.93914 18.2176 4.12237 17.077 3.70275 15.7725C4.687 15.9625 5.70099 15.9233 6.667 15.6593C3.604 15.0405 1.4005 12.3495 1.4005 9.22429V9.14104C2.31357 9.64971 3.33551 9.93153 4.38025 9.96279C1.495 8.03479 0.606245 4.19704 2.34825 1.19679C3.99647 3.22495 6.05289 4.88372 8.38395 6.06536C10.715 7.24699 13.2686 7.92507 15.8787 8.05554C15.6186 6.93523 15.6571 5.76625 15.9904 4.66549C16.3238 3.56474 16.9403 2.57078 17.7782 1.78304C20.4225 -0.702715 24.5812 -0.575214 27.0667 2.06779C28.537 1.77747 29.947 1.2384 31.236 0.473786C30.7459 1.99396 29.7203 3.28438 28.35 4.10504C29.6514 3.95159 30.9223 3.6031 32.12 3.07129C31.239 4.39069 30.1296 5.54232 28.844 6.47204Z" fill="#1D9BF0"/>
</svg>
