<svg width="32" height="32" viewBox="0 0 32 32" fill="none" xmlns="http://www.w3.org/2000/svg">
<g clip-path="url(#clip0_673_628)">
<path d="M0.80158 15.8086C0.800836 18.4972 1.50335 21.1224 2.83916 23.4363L0.673828 31.3423L8.76462 29.2209C11.0024 30.4391 13.5097 31.0775 16.0576 31.0776H16.0643C24.4755 31.0776 31.3224 24.2332 31.326 15.8206C31.3276 11.7441 29.7415 7.91076 26.8598 5.02679C23.9785 2.14307 20.1466 0.554107 16.0637 0.552246C7.65157 0.552246 0.805177 7.39628 0.801704 15.8086" fill="url(#paint0_linear_673_628)"/>
<path d="M0.256737 15.8035C0.255868 18.5889 0.983558 21.308 2.367 23.7048L0.124023 31.8942L8.50492 29.6967C10.8141 30.9558 13.4141 31.6196 16.0597 31.6206H16.0665C24.7794 31.6206 31.8722 24.53 31.876 15.8162C31.8774 11.5932 30.2343 7.62208 27.2496 4.63479C24.2645 1.64788 20.2956 0.00173643 16.0665 0C7.35205 0 0.260209 7.08961 0.256737 15.8035ZM5.24774 23.292L4.93481 22.7953C3.61934 20.7036 2.92502 18.2865 2.92601 15.8045C2.92886 8.56174 8.82331 2.66915 16.0714 2.66915C19.5815 2.67064 22.8802 4.03895 25.3614 6.52155C27.8423 9.0044 29.2076 12.3049 29.2067 15.8152C29.2035 23.058 23.3089 28.9513 16.0665 28.9513H16.0613C13.7031 28.9501 11.3903 28.3168 9.37326 27.12L8.89326 26.8353L3.91987 28.1393L5.24774 23.2919V23.292Z" fill="url(#paint1_linear_673_628)"/>
<path d="M12.1151 9.19662C11.8192 8.53888 11.5077 8.52561 11.2263 8.51407C10.9959 8.50415 10.7324 8.5049 10.4692 8.5049C10.2058 8.5049 9.77776 8.604 9.41596 8.99904C9.05379 9.39445 8.03326 10.35 8.03326 12.2934C8.03326 14.237 9.44883 16.1152 9.64616 16.379C9.84375 16.6423 12.3789 20.7582 16.3941 22.3415C19.731 23.6574 20.4101 23.3957 21.1343 23.3297C21.8586 23.264 23.4715 22.3744 23.8006 21.452C24.1299 20.5297 24.1299 19.7391 24.0312 19.5739C23.9324 19.4093 23.669 19.3105 23.2739 19.113C22.8788 18.9154 20.9367 17.9598 20.5747 17.8279C20.2125 17.6962 19.9492 17.6305 19.6857 18.026C19.4223 18.4209 18.6658 19.3105 18.4352 19.5739C18.2049 19.838 17.9743 19.8708 17.5794 19.6733C17.1841 19.4751 15.912 19.0584 14.4026 17.7128C13.2283 16.6658 12.4355 15.3727 12.205 14.9772C11.9746 14.5823 12.1804 14.3682 12.3784 14.1714C12.5559 13.9944 12.7736 13.7101 12.9713 13.4795C13.1683 13.2488 13.234 13.0842 13.3657 12.8208C13.4976 12.5571 13.4316 12.3264 13.333 12.1288C13.234 11.9313 12.4664 9.97764 12.1151 9.19662Z" fill="white"/>
</g>
<defs>
<linearGradient id="paint0_linear_673_628" x1="1533.28" y1="3079.56" x2="1533.28" y2="0.552246" gradientUnits="userSpaceOnUse">
<stop stop-color="#1FAF38"/>
<stop offset="1" stop-color="#60D669"/>
</linearGradient>
<linearGradient id="paint1_linear_673_628" x1="1587.72" y1="3189.42" x2="1587.72" y2="0" gradientUnits="userSpaceOnUse">
<stop stop-color="#F9F9F9"/>
<stop offset="1" stop-color="white"/>
</linearGradient>
<clipPath id="clip0_673_628">
<rect width="31.76" height="32" fill="white" transform="translate(0.119995)"/>
</clipPath>
</defs>
</svg>
